<svg width="95" height="50" viewBox="0 0 95 50" fill="none" xmlns="http://www.w3.org/2000/svg">
<path d="M12.943 36.6272C12.5661 36.2814 12.1263 35.8779 11.5608 35.5897C10.6812 35.1286 9.48738 34.7827 7.91662 34.7827C5.71756 34.7827 3.70699 35.5897 2.32472 36.9731C0.879625 38.2988 0 40.201 0 42.3913C0 44.5817 0.879625 46.4839 2.32472 47.8096C3.76982 49.193 5.78039 50 7.91662 50C9.42455 50 10.6812 49.6541 11.5608 49.193C12.1263 48.9048 12.5661 48.5589 12.943 48.1555V49.5965H15.8332V35.1862H12.943V36.6272ZM7.97945 47.4638C6.53435 47.4638 5.27775 46.945 4.39812 46.0227C3.5185 45.1005 2.95303 43.8324 2.95303 42.3913C2.95303 40.9503 3.5185 39.6246 4.39812 38.76C5.27775 37.8377 6.53435 37.3189 7.97945 37.3189C9.48738 37.3189 10.8068 37.8377 11.7493 38.76C12.6917 39.6822 13.2572 40.9503 13.2572 42.3913C13.2572 43.8324 12.6917 45.1005 11.7493 46.0227C10.8068 46.945 9.48738 47.4638 7.97945 47.4638Z" fill="#F47E3A"/>
<path d="M33.4029 34.7827H32.7459H29.9209L25.979 39.7131L22.0371 34.7827H18.5551L24.3365 41.9044L18.0952 50H21.5115L26.0447 44.1565L30.5122 50H33.9285L27.6871 41.9044L33.4029 34.7827Z" fill="#F47E3A"/>
<path d="M47.5371 35.3613C46.6135 35.0142 45.5579 34.7827 44.4364 34.7827C42.0614 34.7827 40.0163 35.5349 38.499 36.8657C37.0476 38.2543 36.1899 40.1637 36.1899 42.4781V42.5939C36.1899 44.7925 37.0476 46.7019 38.499 47.9749C39.9503 49.3057 42.0614 50 44.5024 50C45.6899 50 46.8114 49.8843 47.9329 49.4792C49.0545 49.0742 50.11 48.4377 51.1655 47.4541L51.3635 47.2227L49.3183 45.4869L49.0545 45.7183C48.3947 46.2969 47.801 46.7598 47.0753 47.0491C46.3496 47.3384 45.5579 47.512 44.4364 47.512C43.6448 47.512 42.9191 47.3963 42.3253 47.1648C41.4017 46.8177 40.6101 46.2969 40.0823 45.5447C39.6205 44.9083 39.2906 44.0404 39.2246 43.1146H52.0232V42.8253C52.0232 42.4203 52.0232 41.9574 52.0232 41.8995C52.0232 39.9323 51.2975 38.1386 49.9781 36.8078C49.3183 36.2292 48.5267 35.7085 47.5371 35.3613ZM40.9399 38.4279C41.8635 37.7336 43.051 37.3286 44.4364 37.3286C45.6899 37.3286 46.7454 37.7336 47.5371 38.4279C48.2628 39.0644 48.7246 39.8744 48.7906 40.8002H39.4226C39.5545 39.8744 40.1482 39.0065 40.9399 38.4279Z" fill="#0D0D0D"/>
<path d="M67.6746 35.6814C66.7098 35.0823 65.4877 34.7827 64.137 34.7827C62.915 34.7827 61.8215 35.0823 60.9211 35.5616C60.4065 35.8611 59.9563 36.2206 59.5704 36.6399V34.9624H56.5474V49.9401H59.506V41.1332C59.506 39.9949 59.892 39.0963 60.5995 38.4373C61.307 37.7782 62.2718 37.4188 63.4938 37.4188C64.0727 37.4188 64.5873 37.4787 65.0375 37.6584C65.6807 37.8981 66.2596 38.3174 66.5812 38.8566C66.9671 39.3958 67.16 40.1147 67.16 40.9535V50H70.1187V40.5341C70.1187 39.6954 69.9901 38.9165 69.7328 38.1976C69.3469 37.1791 68.6394 36.2805 67.6746 35.6814Z" fill="#0D0D0D"/>
<path d="M74.6421 50H74.8827H76.904V34.7827H74.6421V50Z" fill="#0D0D0D"/>
<path d="M88.7584 41.9044L94.4742 34.7827H90.9922L87.0503 39.7131L83.1084 34.7827H79.6264L85.4078 41.9044L79.1665 50H82.5828L87.116 44.1565L91.5834 50H94.9997L88.7584 41.9044Z" fill="#0D0D0D"/>
<path d="M12.6772 26.8956C12.4811 26.5417 12.2849 26.1878 12.1541 25.834C11.7618 24.7133 11.6964 23.5337 11.9579 22.413C12.2849 21.2924 12.9388 20.2307 13.9196 19.405L33.9289 3.30297V0L12.1541 17.6945C11.1733 18.4613 10.454 19.405 9.93086 20.3487C9.14618 21.8232 8.88462 23.4747 9.14618 25.0672C9.40774 26.6597 10.1924 28.2522 11.4348 29.5498L12.3503 30.4345L33.9289 12.917V9.67299L12.6772 26.8956Z" fill="#F47E3A"/>
<path d="M20.3579 30.4349H24.4425L33.9293 22.8556V19.5654L20.3579 30.4349Z" fill="#F47E3A"/>
</svg>
